<svg xmlns="http://www.w3.org/2000/svg" viewBox="0 0 600 840" width="600" height="840"><defs><symbol id="pip" viewBox="63.75 143.43 44.9 48.24"><path d="m 64.3,165.82 a 21.98,21.98 0 1 0 43.95,0 21.98,21.98 0 1 0 -43.95,0 z" style="fill:#f9e324;stroke:#000000;stroke-width:0.275011"></path><path d="m 89.11,146.67 c -0.53,-1.5 -0.91,-1.94 -1.49,-2.73 -0.9,-0.08 -3.04,0.08 -4.05,0.15 0.62,0.54 1.34,1.39 1.45,2.57 -1.01,0.19 -2.12,1.49 -2.04,3.15 0,1.64 1.72,3.25 3.44,3.24 1.73,-0.01 3.66,-1.64 3.63,-3.61 -0.02,-1.14 -0.32,-1.83 -0.94,-2.77 z" style="fill:#000000;stroke:#000000;stroke-width:0.192507"></path><path style="fill:#ff0000;stroke:#000000;stroke-width:0.192241" d="m 108.1,165.8 c -14.06,-4.54 -28.9,-4.46 -43.83,-0.04 -0.05,3.3 0.65,5.36 1.8,8.4 13.32,-3.31 26.78,-4.36 40.31,-0.04 1.64,-3.62 1.5,-5.18 1.72,-8.32 z"></path><path style="opacity:0.2;fill:#000000;fill-rule:evenodd;stroke-width:0.275011" d="m 92,144.66 c 5.87,3.97 5.93,12.98 4.56,18.47 -0.15,3.15 -1.34,6.4 -2.57,8.56 -12.53,-1.28 -22.6,1.37 -22.6,1.37 0.08,0.67 0.15,1.33 0.25,1.99 0,0 9.56,-2.69 10.54,0.82 1.15,4.96 -5.27,5.19 -9.25,5.96 -1.6,-7.43 -5.11,-23.1 5.51,-36.63 -9.49,4.13 -13.89,12.41 -14.08,20.16 -0.18,7.33 3.49,14.18 7.2,16.83 8.23,6.92 19,6.72 25.14,2.82 7.06,-3.81 11.76,-11.13 11.55,-19.23 0.38,-10.37 -8.21,-19.52 -16.24,-21.13 z"></path><path style="opacity:0.3;fill:#000000;stroke-width:0.194783" d="m 86.4,162.33 c -7.33,0 -14.78,1.13 -22.24,3.34 l 0.32,2.49 c 11.31,-4.53 31.17,-5.26 43.45,-0.1 0.05,1.34 -0.69,3.55 -1.18,4.53 -8.21,-3.42 -27.98,-5.03 -41.26,0.22 0.15,0.41 0.3,0.83 0.47,1.27 13.32,-3.31 26.78,-4.36 40.31,-0.04 1.64,-3.62 1.5,-5.18 1.72,-8.32 -7.03,-2.27 -14.25,-3.39 -21.59,-3.38 z"></path><g transform="matrix(0.27826,0,0,0.27826,36.81646,126.48956)"><path style="fill:#fdfedf;stroke:#000000;stroke-width:1.39654" d="m 195.29,212.97 c -0.49,7.72 -4.22,19.88 -18.57,19.84 -14.35,-0.04 -16.78,-11.9 -17.21,-20.05 l 8.11,0.11 c -0.18,5.75 1.11,12.93 8.94,13.51 7.73,-0.19 10.13,-7.13 9.73,-13.44 l 8.99,0.02 v 2e-4 0 z"></path><path d="m 163.04,218.6 5.76,0.83 c 1.51,2.15 -1.55,3.67 8.02,7.58 -4.89,0.47 -10.03,-0.17 -13.78,-8.41 z" style="opacity:0.6;fill:#000000;fill-rule:evenodd;stroke-width:1px"></path><path d="m 189.93,218.93 c -1.07,6.91 -9.09,12.12 -14.95,13.29 9.05,0.29 14.64,-1.6 19.47,-14.21 z" style="opacity:0.6;fill:#000000;fill-rule:evenodd;stroke-width:1px"></path></g><path style="opacity:0.6;fill:none;fill-rule:evenodd;stroke:#000000;stroke-width:0.192241" d="M 65.52,172.76 C 79.78,168.19 93.26,168.38 106.85,172.56"></path><path style="opacity:0.4;fill:#000000;fill-rule:evenodd;stroke:#000000;stroke-width:0.275011px" d="m 92.97,144.99 c 6.26,3.48 8.94,10.26 8.19,18.91 -0.19,3.12 -0.6,6.18 -2.46,8.31 -15.55,-2.72 -32.52,2.08 -32.52,2.08 l 0.55,1.28 c 0.22,-1.13 17.06,-4.26 17.23,-2.43 3.58,8.58 -4.7,8.77 -9.62,10.92 6.71,4.41 15.3,4.77 22.36,0.96 7.06,-3.81 11.5,-11.19 11.5,-19.21 0,-9.49 -6.18,-17.91 -15.22,-20.81 z"></path><g transform="matrix(0.27749,0,0,0.27826,108.59605,125.26365)"><g transform="translate(272.97227,-10.05806)"><path d="m -370.23,221.27 c -0.06,-0.23 6.71,0.15 10.05,-6.55 l 0.07,-23.5 c -2.39,-6.7 5.29,-12.76 6.86,-13.97 4.69,1.09 6.96,7.07 7.42,10.61 2.79,-1.57 4.49,-2.46 8.66,-2.65 3.62,7.03 0.72,12.22 -2.65,15.38 5.78,3.57 -0.2,9.6 -4.77,15.73 -0.47,5.77 0.41,8.04 2.64,5.95 4.75,-4.42 8.83,-20.29 20.13,-26.55 6.87,4.17 3.95,6.87 2.86,11.93 6.99,-7.46 14.69,-10.96 21.21,-13.26 -0.1,4.55 -0.41,7.89 -3.89,11.49 6.88,-4.57 8.81,-17.6 18.41,-14.36 -10.73,27.64 -76.49,48.98 -87,29.74 z" style="opacity:0.6;fill:#000000;fill-rule:evenodd;stroke-width:1px"></path><path transform="translate(-259,5)" d="m -27.88,195.41 c 0.47,3.56 3.62,4.3 6.25,1.94 2.95,-2.65 2.69,-9.35 -3.87,-9.86 -8.69,-0.52 -7.8,11.58 -21.06,17.99 0.92,-2.74 5.44,-9.81 5.11,-12.13 -5.51,0.06 -17.3,10.27 -20.18,15.59 -2.86,-2.33 4.03,-12.5 -1.19,-14.59 -3.49,1.83 -9.8,10.19 -12.2,16.09 -10.06,22.31 -15.55,5.94 -13.08,0.35 9.36,-10.26 7.29,-14.21 3.54,-14.14 2.95,-4.4 7.65,-8.51 5.3,-13.79 0,0 -6.76,1.95 -9.45,4.71 2.32,-5.92 -1.56,-10.45 -5.67,-14.18 -4.11,3.91 -7.95,8.27 -5.63,14.18 -2.69,-2.75 -9.45,-4.71 -9.45,-4.71 -2.35,5.28 2.35,9.39 5.3,13.79 -3.76,-0.07 -5.83,3.88 3.54,14.14 2.47,5.59 -3.02,21.96 -13.08,-0.35 -2.4,-5.89 -8.71,-14.26 -12.2,-16.09 -5.22,2.09 1.67,12.26 -1.19,14.59 -2.88,-5.32 -14.67,-15.53 -20.18,-15.59 -0.34,2.32 4.19,9.39 5.11,12.13 -13.26,-6.41 -12.37,-18.51 -21.06,-17.99 -6.55,0.51 -6.81,7.21 -3.87,9.86 2.62,2.35 5.78,1.62 6.25,-1.94 14.32,20.96 37.77,33.79 66.48,34.05 28.71,-0.27 52.16,-13.09 66.48,-34.05 z" style="fill:#008000;fill-rule:evenodd;stroke:#000000;stroke-width:0.988319px"></path><path transform="translate(-259,5)" d="m -27.63,194.35 c 0.16,4.36 2.4,5.87 6,3 -2.04,-0.46 -4.96,-0.78 -5.21,-5.71 -4.27,6.25 -13.31,18.71 -27.14,23.39 0.92,-2.74 4.91,-8.22 4.58,-10.54 -3.14,6.78 -17.68,18.92 -19.3,16.29 -1.42,-3.33 -0.25,-6.84 2.01,-13 -2.52,-1.64 -5,5.99 -6.38,9.19 -9.42,21.67 -21.8,1.43 -19.6,-3.89 7.09,-8.2 6.79,-11.86 0.31,-10.01 4.5,-6.73 6.55,-16.65 0.18,-9 1.38,-4.91 -0.72,-10.64 -2.18,-14.1 -1.47,3.45 -3.63,9.18 -2.25,14.1 -6.46,-7.44 -4.26,2.27 0.24,9 -6.47,-1.85 -6.77,1.8 0.31,10.01 2.2,5.32 -10.17,25.57 -19.6,3.89 -1.38,-3.2 -3.87,-10.83 -6.38,-9.19 2.26,6.16 3.43,9.67 2.01,13 -1.61,2.63 -16.16,-9.52 -19.3,-16.29 -0.34,2.32 3.66,7.8 4.58,10.54 -13.83,-4.68 -22.87,-17.14 -27.14,-23.39 -0.25,4.93 -3.17,5.25 -5.21,5.71 3.6,2.87 5.84,1.35 6,-3 15.32,24.39 37.83,35.17 66.73,35.44 28.9,-0.27 51.42,-11.05 66.73,-35.44 z" style="opacity:0.4;fill:#000000;fill-rule:evenodd;stroke-width:1px"></path></g></g></symbol><symbol id="emblem" viewBox="108.93 121.94 38.58 37.52"><path d="m 146.63,140.68 a 18.34,18.34 0 0 1 -18.34,18.34 18.34,18.34 0 0 1 -18.34,-18.34 18.34,18.34 0 0 1 18.34,-18.34 18.34,18.34 0 0 1 18.34,18.34 z" style="fill:#f9e324;fill-rule:evenodd;stroke:#000000;stroke-width:0.275011;stroke-linecap:round;stroke-linejoin:round;stroke-miterlimit:79.8403"></path><path d="m 127.81,122.37 c -16.65,0.83 -20.78,17.99 -16.16,26.13 3.1,0.91 4.95,2.26 10.38,2.34 0.81,0.13 -0.14,2.34 0.74,3.36 0.32,1.59 -0.27,2.69 -1.29,3.51 6.27,2.38 13.03,1.86 19.11,-3.37 l -3.92,-1.51 c -1.9,1.28 -2.51,-0.04 -2.19,-0.94 0.28,-0.77 1.3,-1.13 2.05,-0.3 5.4,2.63 6.54,-1.37 8.87,-3.51 4.04,-13.26 -3.24,-25.04 -16.5,-25.71 7.77,3.21 12.25,19 -0.48,27.16 -13.93,-0.49 -15.41,-25.95 -0.62,-27.16 z" style="opacity:0.3;fill:#000000;fill-rule:evenodd;stroke-width:0.275011px"></path><path d="m 109.91,139.81 c -0.26,-0.07 -0.4,0.03 -0.55,0.31 0.04,2.47 0.43,4.95 1.3,7.42 0.27,0.42 0.54,0.5 0.82,0.7 6.96,1.72 28.69,1.8 33.5,0 0.23,-0.06 0.68,-0.28 0.84,-0.71 0.65,-2.11 1.36,-4.64 1.28,-7.41 -0.1,-0.17 -0.27,-0.21 -0.43,-0.12 0.05,0.3 0.13,0.61 -0.15,0.89 -11.48,1.78 -24.57,1.59 -36.58,0.07 -0.16,-0.31 -0.15,-0.84 -0.03,-1.15 z" style="fill:#ff0000;fill-rule:evenodd;stroke:#000000;stroke-width:0.194889"></path><path d="m 130.34,122.64 c 11.53,2.79 15.48,10.63 15.77,18.33 0.51,-0.08 0.6,-1.08 0.92,-0.96 0.04,2.61 -0.54,5.44 -1.48,7.88 -5.06,8.12 -11.04,10.58 -17.39,9.9 l -1.56,-2.72 c -0.57,-0.78 -2.16,-2 -3.72,-0.66 -0.05,-3.19 3.35,-1.95 4.3,-1.09 l 0.73,-2.97 c -4.31,-0.02 -12.29,-0.31 -16.9,-1.72 -0.28,-2.02 -2.56,-7.61 -1.31,-8.87 0.04,0.52 0,1.33 0.58,1.33 0.48,-4.69 1.69,-8.3 4.82,-12.24 -1.76,5.39 -1.91,17.5 2.4,20.15 3.78,0.37 7.88,0.57 10.62,0.33 l 0.36,-1.5 c 1.06,0.52 2.14,1.19 2.28,2.97 2.34,-1.03 4.35,1.32 3.21,3.6 -3.01,-1.5 -3.93,0.33 -2.97,1.58 1.04,1.09 2.26,-0.01 2.77,-1.19 1.03,-0.67 1.86,-0.49 2.6,-0.17 -0.33,-1.47 -0.29,-3.27 0.64,-4.36 -1.47,0.14 -5.02,0.15 -6.3,0.17 -0.04,-0.24 -0.1,-0.47 -0.2,-0.71 -0.18,-0.07 2.57,0.01 2.69,-0.09 4.56,-5.22 10.27,-20.24 -2.88,-26.97 z" style="opacity:0.3;fill:#000000;fill-rule:evenodd;stroke-width:0.275011px"></path><path d="m 109.55,142.1 c 7.06,2.26 29.64,2.35 37.44,0.08 -0.14,1.5 -0.55,2.99 -0.92,4.49 -8.91,2.22 -28.07,1.77 -35.59,0.03 -0.4,-1.38 -0.82,-2.72 -0.93,-4.61 z" style="fill:none;fill-rule:evenodd;stroke:#000000;stroke-width:0.137505"></path><path d="m 146.5,145.12 -2.58,-1.96 -2.6,2.08 -2.66,-1.52 -2.72,1.93 -2.63,-1.65 -2.66,1.96 -2.64,-1.95 -2.68,1.91 -2.67,-1.94 -2.64,1.81 -2.7,-2.22 -2.62,1.8 -2.69,-2.42 -2.14,1.44 0.3,1.31 1.85,-1.08 2.66,2.5 2.64,-1.8 2.68,2.23 2.63,-1.92 2.7,2.25 2.66,-2.08 2.69,2.11 2.66,-1.96 2.65,1.75 2.62,-1.7 2.68,1.26 2.67,-2.27 2.12,1.49 z" style="fill:none;fill-rule:evenodd;stroke:#000000;stroke-width:0.137505;stroke-linejoin:round"></path><path d="m 129.52,124.89 -0.09,-2.48 c -0.86,-0.1 -1.71,-0.05 -2.56,0 h 0 l -0.09,2.48 c -4.72,0.57 -2.96,5.01 1.37,4.99 4.33,0.02 6.08,-4.42 1.36,-4.99 z" style="fill:#000000;fill-rule:evenodd;stroke-width:0.275011px"></path><path d="m 143.82,150.47 c 2.51,1.15 3.31,-2.6 1.09,-2.8 -1.07,0.04 -2.37,0.37 -2.56,1.61 -0.34,2.5 -2.75,3.2 -3.5,1.07 -2.66,-0.3 -2.6,3.59 -1.45,4.84 -1.15,-0.35 -2.62,-0.71 -3.45,-0.07 -0.4,2.7 -3.69,2.38 -4,0.34 -0.32,-2.24 2.85,-2.88 3.86,-1.42 0.75,-3.31 -3.13,-3.95 -3.95,-1.4 0.48,-1.83 0.72,-3.43 -1.56,-4.4 -2.28,0.98 -2.03,2.58 -1.55,4.4 -0.83,-2.55 -4.71,-1.9 -3.95,1.4 1.01,-1.46 4.18,-0.83 3.86,1.42 -0.31,2.04 -3.6,2.37 -4,-0.34 -0.82,-0.64 -2.3,-0.28 -3.45,0.07 1.15,-1.25 1.21,-5.13 -1.45,-4.84 -0.75,2.13 -3.16,1.43 -3.5,-1.07 -0.19,-1.25 -1.49,-1.57 -2.56,-1.61 -2.22,0.19 -1.43,3.94 1.09,2.8 3.74,5.96 10.13,8.64 15.52,8.49 5.39,0.15 11.78,-2.52 15.52,-8.49 z" style="fill:#008000;fill-rule:evenodd;stroke:#000000;stroke-width:0.275011px"></path><path d="m 112.62,148.91 c 1.61,3.61 3.73,4.23 6.26,2.61 -0.64,1.67 -0.37,3.03 -0.21,4.4 0.92,-0.35 1.86,-0.69 3.09,-0.55 -0.02,2.24 4.55,3.92 5.91,0.17 -1.35,-2.15 -2.49,-2.98 -4.57,-2.51 0.53,-1.46 2.58,-1.72 4.09,0.35 -0.32,-1.11 -0.34,-1.72 -0.44,-2.42 0.36,0.16 0.62,0.44 0.87,0.92 -0.06,-1.18 -0.23,-2.32 0.65,-3.42 0.7,0.98 0.62,2.27 0.45,3.43 0.25,-0.33 0.6,-0.75 1,-0.89 -0.09,0.94 -0.33,1.67 -0.64,2.56 1.58,-1.37 3.27,-2.82 4.34,-0.49 -1.9,-0.42 -3.46,0.59 -4.92,2.48 0.51,2.34 5.35,3.52 6.02,-0.03 1.1,-0.44 2.2,0.04 3.3,0.17 0.69,-1.42 0.43,-2.84 0.1,-4.26 2.03,1.77 3.99,0.67 5.98,-1.94 0.84,1.81 2.67,-0.54 1.43,-1.69 2.02,1.06 0.15,3.75 -1.43,2.6 -3.8,6.23 -10.86,8.78 -15.92,8.59 -8.2,-0.09 -13.12,-5.32 -15.4,-8.63 -1.58,0.99 -3.04,-1.27 -1.31,-2.68 -1.26,1.92 0.71,3.46 1.34,1.24 z" style="opacity:0.3;fill:#000000;fill-rule:evenodd;stroke-width:0.275011px"></path><path style="opacity:0.6;fill:#000000;fill-rule:evenodd;stroke-width:0.275011px" d="m 112.62,148.91 c 1.61,3.61 3.73,4.23 6.26,2.61 -0.64,1.67 -0.37,3.03 -0.21,4.4 0.92,-0.35 1.86,-0.69 3.09,-0.55 -0.02,2.24 4.55,3.92 5.91,0.17 -1.36,-2.22 -2.72,-4.45 -4.57,-2.51 0.53,-1.46 2.48,-2.1 4.68,1.48 -0.32,-1.11 -0.62,-2.18 -0.72,-2.89 0.36,0.16 0.63,0.46 0.88,0.95 -0.06,-1.18 -0.55,-2.56 0.33,-3.66 0.7,0.98 0.29,2.5 0.12,3.65 0.25,-0.33 0.61,-0.76 1.01,-0.9 -0.09,0.94 -0.62,2.03 -0.93,2.92 2.06,-2.33 3.89,-3.84 4.95,-1.51 -1.59,-1.92 -3.43,0.49 -4.92,2.48 0.51,2.34 5.35,3.52 6.02,-0.03 1.1,-0.44 2.2,0.04 3.3,0.17 0.69,-1.42 0.43,-2.84 0.1,-4.26 2.03,1.77 3.99,0.67 5.98,-1.94 0.84,1.81 2.67,-0.54 1.43,-1.69 2.02,1.06 0.15,3.75 -1.43,2.6 -1.02,1.67 -3.94,3.31 -5.02,2.25 0.29,3.66 -1.63,4.13 -3.91,3.44 -0.98,3.11 -6.04,3.03 -6.92,0.24 -0.89,2.84 -6.28,2.51 -6.71,-0.35 -2.16,0.9 -4.2,0.41 -3.29,-3.39 -2.99,1.62 -4.6,-0.97 -5.47,-2.22 -1.58,0.99 -3.04,-1.27 -1.31,-2.68 -1.26,1.92 0.71,3.46 1.34,1.24 z"></path></symbol><symbol id="numeral" viewBox="126.82 182.09 44.45 20.5"><path style="fill:#000000;fill-rule:evenodd;stroke-width:0.282222" d="m 127.23,182.49 9.89,0.01 0,0.54 -1.27,0.01 5.76,12.67 2.87,-5.98 c 0.42,-0.81 0.43,-1.57 0.3,-1.95 l -2.38,-4.74 -2.55,0.01 0.02,-0.56 9.2,0 0,0.55 h -0.96 l -9.19,19.15 -8.97,-19.14 -2.74,0 z"></path><path style="fill:#000000;stroke-width:0.282222;stroke-linecap:round;stroke-linejoin:bevel" d="m 147.87,182.5 8.25,0.01 v 0.54 l -1.31,0 v 18.58 l 1.31,0 0,0.54 h -8.25 v -0.55 h 1.39 v -18.58 l -1.39,0 z"></path><path d="m 155.24,182.51 h 8.25 v 0.54 h -1.31 v 18.58 h 1.31 l 0,0.55 h -8.25 v -0.55 h 1.39 v -18.58 h -1.39 z" style="fill:#000000;stroke-width:0.282222;stroke-linecap:round;stroke-linejoin:bevel"></path><path style="fill:#000000;stroke-width:0.282222;stroke-linecap:round;stroke-linejoin:bevel" d="m 162.61,182.51 8.25,0.01 v 0.54 l -1.31,0 v 18.58 l 1.31,0 0,0.54 h -8.25 v -0.55 h 1.39 v -18.58 l -1.39,0 z"></path></symbol></defs><rect x="4" y="4" width="592" height="832" rx="40" fill="#fbfaf5" stroke="#c9c2b0" stroke-width="5"/><rect x="112" y="146" width="376" height="548" rx="26" fill="#f8eed4"/><rect x="26" y="26" width="548" height="788" rx="24" fill="none" stroke="#a8680f" stroke-width="3" stroke-opacity="0.6"/><rect x="215" y="42" width="170" height="84" rx="14" fill="#fbfaf5" stroke="#a8680f" stroke-width="2.5" stroke-opacity="0.7"/><use href="#numeral" x="239.3" y="56" width="121.4" height="56"/><use href="#pip" x="133.8" y="200" width="102.4" height="110"/><use href="#pip" x="133.8" y="365" width="102.4" height="110"/><use href="#pip" x="133.8" y="530" width="102.4" height="110"/><use href="#pip" x="363.8" y="200" width="102.4" height="110"/><use href="#pip" x="363.8" y="365" width="102.4" height="110"/><use href="#pip" x="363.8" y="530" width="102.4" height="110"/><use href="#pip" x="248.8" y="282" width="102.4" height="110"/><use href="#pip" x="248.8" y="448" width="102.4" height="110"/><text x="80" y="112" font-family="Georgia, 'Times New Roman', serif" font-weight="700" font-size="88" text-anchor="middle" fill="#a8680f">8</text><use href="#emblem" x="50" y="128" width="60" height="64"/><use href="#emblem" x="490" y="644" width="60" height="64"/><text x="520" y="788" font-family="Georgia, 'Times New Roman', serif" font-weight="700" font-size="88" text-anchor="middle" fill="#a8680f">8</text></svg>
