<svg xmlns="http://www.w3.org/2000/svg" viewBox="0 0 600 840" width="600" height="840"><defs><symbol id="emblem" viewBox="108.93 121.94 38.58 37.52"><path d="m 146.63,140.68 a 18.34,18.34 0 0 1 -18.34,18.34 18.34,18.34 0 0 1 -18.34,-18.34 18.34,18.34 0 0 1 18.34,-18.34 18.34,18.34 0 0 1 18.34,18.34 z" style="fill:#f9e324;fill-rule:evenodd;stroke:#000000;stroke-width:0.275011;stroke-linecap:round;stroke-linejoin:round;stroke-miterlimit:79.8403"></path><path d="m 127.81,122.37 c -16.65,0.83 -20.78,17.99 -16.16,26.13 3.1,0.91 4.95,2.26 10.38,2.34 0.81,0.13 -0.14,2.34 0.74,3.36 0.32,1.59 -0.27,2.69 -1.29,3.51 6.27,2.38 13.03,1.86 19.11,-3.37 l -3.92,-1.51 c -1.9,1.28 -2.51,-0.04 -2.19,-0.94 0.28,-0.77 1.3,-1.13 2.05,-0.3 5.4,2.63 6.54,-1.37 8.87,-3.51 4.04,-13.26 -3.24,-25.04 -16.5,-25.71 7.77,3.21 12.25,19 -0.48,27.16 -13.93,-0.49 -15.41,-25.95 -0.62,-27.16 z" style="opacity:0.3;fill:#000000;fill-rule:evenodd;stroke-width:0.275011px"></path><path d="m 109.91,139.81 c -0.26,-0.07 -0.4,0.03 -0.55,0.31 0.04,2.47 0.43,4.95 1.3,7.42 0.27,0.42 0.54,0.5 0.82,0.7 6.96,1.72 28.69,1.8 33.5,0 0.23,-0.06 0.68,-0.28 0.84,-0.71 0.65,-2.11 1.36,-4.64 1.28,-7.41 -0.1,-0.17 -0.27,-0.21 -0.43,-0.12 0.05,0.3 0.13,0.61 -0.15,0.89 -11.48,1.78 -24.57,1.59 -36.58,0.07 -0.16,-0.31 -0.15,-0.84 -0.03,-1.15 z" style="fill:#ff0000;fill-rule:evenodd;stroke:#000000;stroke-width:0.194889"></path><path d="m 130.34,122.64 c 11.53,2.79 15.48,10.63 15.77,18.33 0.51,-0.08 0.6,-1.08 0.92,-0.96 0.04,2.61 -0.54,5.44 -1.48,7.88 -5.06,8.12 -11.04,10.58 -17.39,9.9 l -1.56,-2.72 c -0.57,-0.78 -2.16,-2 -3.72,-0.66 -0.05,-3.19 3.35,-1.95 4.3,-1.09 l 0.73,-2.97 c -4.31,-0.02 -12.29,-0.31 -16.9,-1.72 -0.28,-2.02 -2.56,-7.61 -1.31,-8.87 0.04,0.52 0,1.33 0.58,1.33 0.48,-4.69 1.69,-8.3 4.82,-12.24 -1.76,5.39 -1.91,17.5 2.4,20.15 3.78,0.37 7.88,0.57 10.62,0.33 l 0.36,-1.5 c 1.06,0.52 2.14,1.19 2.28,2.97 2.34,-1.03 4.35,1.32 3.21,3.6 -3.01,-1.5 -3.93,0.33 -2.97,1.58 1.04,1.09 2.26,-0.01 2.77,-1.19 1.03,-0.67 1.86,-0.49 2.6,-0.17 -0.33,-1.47 -0.29,-3.27 0.64,-4.36 -1.47,0.14 -5.02,0.15 -6.3,0.17 -0.04,-0.24 -0.1,-0.47 -0.2,-0.71 -0.18,-0.07 2.57,0.01 2.69,-0.09 4.56,-5.22 10.27,-20.24 -2.88,-26.97 z" style="opacity:0.3;fill:#000000;fill-rule:evenodd;stroke-width:0.275011px"></path><path d="m 109.55,142.1 c 7.06,2.26 29.64,2.35 37.44,0.08 -0.14,1.5 -0.55,2.99 -0.92,4.49 -8.91,2.22 -28.07,1.77 -35.59,0.03 -0.4,-1.38 -0.82,-2.72 -0.93,-4.61 z" style="fill:none;fill-rule:evenodd;stroke:#000000;stroke-width:0.137505"></path><path d="m 146.5,145.12 -2.58,-1.96 -2.6,2.08 -2.66,-1.52 -2.72,1.93 -2.63,-1.65 -2.66,1.96 -2.64,-1.95 -2.68,1.91 -2.67,-1.94 -2.64,1.81 -2.7,-2.22 -2.62,1.8 -2.69,-2.42 -2.14,1.44 0.3,1.31 1.85,-1.08 2.66,2.5 2.64,-1.8 2.68,2.23 2.63,-1.92 2.7,2.25 2.66,-2.08 2.69,2.11 2.66,-1.96 2.65,1.75 2.62,-1.7 2.68,1.26 2.67,-2.27 2.12,1.49 z" style="fill:none;fill-rule:evenodd;stroke:#000000;stroke-width:0.137505;stroke-linejoin:round"></path><path d="m 129.52,124.89 -0.09,-2.48 c -0.86,-0.1 -1.71,-0.05 -2.56,0 h 0 l -0.09,2.48 c -4.72,0.57 -2.96,5.01 1.37,4.99 4.33,0.02 6.08,-4.42 1.36,-4.99 z" style="fill:#000000;fill-rule:evenodd;stroke-width:0.275011px"></path><path d="m 143.82,150.47 c 2.51,1.15 3.31,-2.6 1.09,-2.8 -1.07,0.04 -2.37,0.37 -2.56,1.61 -0.34,2.5 -2.75,3.2 -3.5,1.07 -2.66,-0.3 -2.6,3.59 -1.45,4.84 -1.15,-0.35 -2.62,-0.71 -3.45,-0.07 -0.4,2.7 -3.69,2.38 -4,0.34 -0.32,-2.24 2.85,-2.88 3.86,-1.42 0.75,-3.31 -3.13,-3.95 -3.95,-1.4 0.48,-1.83 0.72,-3.43 -1.56,-4.4 -2.28,0.98 -2.03,2.58 -1.55,4.4 -0.83,-2.55 -4.71,-1.9 -3.95,1.4 1.01,-1.46 4.18,-0.83 3.86,1.42 -0.31,2.04 -3.6,2.37 -4,-0.34 -0.82,-0.64 -2.3,-0.28 -3.45,0.07 1.15,-1.25 1.21,-5.13 -1.45,-4.84 -0.75,2.13 -3.16,1.43 -3.5,-1.07 -0.19,-1.25 -1.49,-1.57 -2.56,-1.61 -2.22,0.19 -1.43,3.94 1.09,2.8 3.74,5.96 10.13,8.64 15.52,8.49 5.39,0.15 11.78,-2.52 15.52,-8.49 z" style="fill:#008000;fill-rule:evenodd;stroke:#000000;stroke-width:0.275011px"></path><path d="m 112.62,148.91 c 1.61,3.61 3.73,4.23 6.26,2.61 -0.64,1.67 -0.37,3.03 -0.21,4.4 0.92,-0.35 1.86,-0.69 3.09,-0.55 -0.02,2.24 4.55,3.92 5.91,0.17 -1.35,-2.15 -2.49,-2.98 -4.57,-2.51 0.53,-1.46 2.58,-1.72 4.09,0.35 -0.32,-1.11 -0.34,-1.72 -0.44,-2.42 0.36,0.16 0.62,0.44 0.87,0.92 -0.06,-1.18 -0.23,-2.32 0.65,-3.42 0.7,0.98 0.62,2.27 0.45,3.43 0.25,-0.33 0.6,-0.75 1,-0.89 -0.09,0.94 -0.33,1.67 -0.64,2.56 1.58,-1.37 3.27,-2.82 4.34,-0.49 -1.9,-0.42 -3.46,0.59 -4.92,2.48 0.51,2.34 5.35,3.52 6.02,-0.03 1.1,-0.44 2.2,0.04 3.3,0.17 0.69,-1.42 0.43,-2.84 0.1,-4.26 2.03,1.77 3.99,0.67 5.98,-1.94 0.84,1.81 2.67,-0.54 1.43,-1.69 2.02,1.06 0.15,3.75 -1.43,2.6 -3.8,6.23 -10.86,8.78 -15.92,8.59 -8.2,-0.09 -13.12,-5.32 -15.4,-8.63 -1.58,0.99 -3.04,-1.27 -1.31,-2.68 -1.26,1.92 0.71,3.46 1.34,1.24 z" style="opacity:0.3;fill:#000000;fill-rule:evenodd;stroke-width:0.275011px"></path><path style="opacity:0.6;fill:#000000;fill-rule:evenodd;stroke-width:0.275011px" d="m 112.62,148.91 c 1.61,3.61 3.73,4.23 6.26,2.61 -0.64,1.67 -0.37,3.03 -0.21,4.4 0.92,-0.35 1.86,-0.69 3.09,-0.55 -0.02,2.24 4.55,3.92 5.91,0.17 -1.36,-2.22 -2.72,-4.45 -4.57,-2.51 0.53,-1.46 2.48,-2.1 4.68,1.48 -0.32,-1.11 -0.62,-2.18 -0.72,-2.89 0.36,0.16 0.63,0.46 0.88,0.95 -0.06,-1.18 -0.55,-2.56 0.33,-3.66 0.7,0.98 0.29,2.5 0.12,3.65 0.25,-0.33 0.61,-0.76 1.01,-0.9 -0.09,0.94 -0.62,2.03 -0.93,2.92 2.06,-2.33 3.89,-3.84 4.95,-1.51 -1.59,-1.92 -3.43,0.49 -4.92,2.48 0.51,2.34 5.35,3.52 6.02,-0.03 1.1,-0.44 2.2,0.04 3.3,0.17 0.69,-1.42 0.43,-2.84 0.1,-4.26 2.03,1.77 3.99,0.67 5.98,-1.94 0.84,1.81 2.67,-0.54 1.43,-1.69 2.02,1.06 0.15,3.75 -1.43,2.6 -1.02,1.67 -3.94,3.31 -5.02,2.25 0.29,3.66 -1.63,4.13 -3.91,3.44 -0.98,3.11 -6.04,3.03 -6.92,0.24 -0.89,2.84 -6.28,2.51 -6.71,-0.35 -2.16,0.9 -4.2,0.41 -3.29,-3.39 -2.99,1.62 -4.6,-0.97 -5.47,-2.22 -1.58,0.99 -3.04,-1.27 -1.31,-2.68 -1.26,1.92 0.71,3.46 1.34,1.24 z"></path></symbol></defs><rect x="4" y="4" width="592" height="832" rx="40" fill="#fbfaf5" stroke="#c9c2b0" stroke-width="5"/><rect x="26" y="26" width="548" height="788" rx="24" fill="#f8eed4"/><path d="M136 790 V300 A164 164 0 0 1 464 300 V790Z" fill="#fbfaf5" fill-opacity="0.7"/><path d="M26 760 H574 V790 Q574 814 550 814 H50 Q26 814 26 790Z" fill="#a8680f" fill-opacity="0.12"/><ellipse cx="300" cy="768" rx="138" ry="14" fill="#000" fill-opacity="0.12"/><path d="M228 338 Q300 316 372 338 L424 762 Q300 786 176 762Z" fill="#d9a21b" stroke="#1d1a16" stroke-width="4" stroke-linejoin="round"/><path d="M280 344 H320 L334 770 Q300 774 266 770Z" fill="#fffaf0" stroke="#1d1a16" stroke-width="4" stroke-linejoin="round"/><path d="M236 334 Q300 382 364 334 Q374 362 362 376 Q300 414 238 376 Q226 362 236 334Z" fill="#fffaf0" stroke="#1d1a16" stroke-width="4" stroke-linejoin="round"/><path d="M296 420 l-4 12 h8z" fill="#1d1a16"/><path d="M304 500 l-4 12 h8z" fill="#1d1a16"/><path d="M294 580 l-4 12 h8z" fill="#1d1a16"/><path d="M306 660 l-4 12 h8z" fill="#1d1a16"/><path d="M298 730 l-4 12 h8z" fill="#1d1a16"/><path d="M270 368 l-4 12 h8z" fill="#1d1a16"/><path d="M330 368 l-4 12 h8z" fill="#1d1a16"/><path d="M238 344 Q206 360 200 430 L196 480 L232 484 L240 430Z" fill="#8a5a0b" stroke="#1d1a16" stroke-width="4" stroke-linejoin="round"/><path d="M362 344 Q394 360 400 430 L404 470 L368 476 L360 430Z" fill="#8a5a0b" stroke="#1d1a16" stroke-width="4" stroke-linejoin="round"/><path d="M210 248 L222 650" stroke="#c23a2e" stroke-width="10" stroke-linecap="round"/><path d="M210 248 L222 650" stroke="#1d1a16" stroke-width="2" stroke-opacity="0.5"/><circle cx="209" cy="236" r="16" fill="#c23a2e" stroke="#1d1a16" stroke-width="4" stroke-linejoin="round"/><path d="M209 206 V222 M197 214 H221" stroke="#1d1a16" stroke-width="4" stroke-linecap="round"/><circle cx="214" cy="488" r="17" fill="#f1c79c" stroke="#1d1a16" stroke-width="4" stroke-linejoin="round"/><use href="#emblem" x="340" y="363.6" width="116" height="112.8"/><circle cx="388" cy="482" r="17" fill="#f1c79c" stroke="#1d1a16" stroke-width="4" stroke-linejoin="round"/><rect x="284" y="282" width="32" height="46" fill="#f1c79c" stroke="#1d1a16" stroke-width="4" stroke-linejoin="round"/><circle cx="300" cy="248" r="46" fill="#f1c79c" stroke="#1d1a16" stroke-width="4" stroke-linejoin="round"/><path d="M256 236 Q258 204 300 200 Q342 204 344 236 Q336 222 300 220 Q264 222 256 236Z" fill="#8a7a66" stroke="#1d1a16" stroke-width="4" stroke-linejoin="round"/><circle cx="283" cy="248" r="4.5" fill="#1d1a16"/><circle cx="317" cy="248" r="4.5" fill="#1d1a16"/><path d="M276 236 q7 -5 14 0 M310 236 q7 -5 14 0" fill="none" stroke="#1d1a16" stroke-width="3" stroke-linecap="round"/><path d="M300 252 q-6 13 3 15" fill="none" stroke="#1d1a16" stroke-width="3" stroke-linecap="round"/><circle cx="273" cy="266" r="8" fill="#e8907a" fill-opacity="0.35"/><circle cx="327" cy="266" r="8" fill="#e8907a" fill-opacity="0.35"/><path d="M256 254 Q256 320 300 336 Q344 320 344 254 Q336 284 300 286 Q264 284 256 254Z" fill="#8a7a66" stroke="#1d1a16" stroke-width="4" stroke-linejoin="round"/><path d="M278 276 Q300 262 322 276 Q312 284 300 278 Q288 284 278 276Z" fill="#8a7a66" stroke="#1d1a16" stroke-width="4" stroke-linejoin="round"/><path d="M252 214 L252 158 L276 184 L300 146 L324 184 L348 158 L348 214Z" fill="#e7b84b" stroke="#1d1a16" stroke-width="4" stroke-linejoin="round"/><rect x="250" y="206" width="100" height="22" rx="4" fill="#d9a21b" stroke="#1d1a16" stroke-width="4" stroke-linejoin="round"/><circle cx="276" cy="217" r="6" fill="#c23a2e" stroke="#1d1a16" stroke-width="2"/><circle cx="300" cy="217" r="6" fill="#2f5d8a" stroke="#1d1a16" stroke-width="2"/><circle cx="324" cy="217" r="6" fill="#c23a2e" stroke="#1d1a16" stroke-width="2"/><circle cx="252" cy="158" r="6" fill="#fff" stroke="#1d1a16" stroke-width="2"/><circle cx="300" cy="146" r="6" fill="#fff" stroke="#1d1a16" stroke-width="2"/><circle cx="348" cy="158" r="6" fill="#fff" stroke="#1d1a16" stroke-width="2"/><rect x="26" y="26" width="548" height="788" rx="24" fill="none" stroke="#a8680f" stroke-width="3" stroke-opacity="0.6"/><text x="80" y="112" font-family="Georgia, 'Times New Roman', serif" font-weight="700" font-size="88" text-anchor="middle" fill="#a8680f">K</text><use href="#emblem" x="50" y="128" width="60" height="64"/><use href="#emblem" x="490" y="644" width="60" height="64"/><text x="520" y="788" font-family="Georgia, 'Times New Roman', serif" font-weight="700" font-size="88" text-anchor="middle" fill="#a8680f">K</text></svg>
